# xmcd
#
# Track frame offsets:
#	150
#	10592
#	28233
#	45449
#	56182
#	67881
#	78063
#	103880
#	117860
#	134535
#	147219
#	157329
#	177043
#	187112
#
# Disc length: 2749 seconds
#
# Revision: 0
# Processed by: cddbd v1.5.2PL0 Copyright (c) Steve Scherf et al.
# Submitted via: dBpowerAMP V4.0
#
DISCID=bf0abb0e
DTITLE=19th Street Red - Street Dog
DYEAR=2005
DGENRE=Blues
TTITLE0=Red Hot Mama
TTITLE1=Back Door Man
TTITLE2=Bad Boy
TTITLE3=Whiskey Stole My Baby
TTITLE4=Do the Do
TTITLE5=Red's Harmonica Stroll
TTITLE6=Sadie
TTITLE7=My Baby's Got Something
TTITLE8=I Asked for Water
TTITLE9=How Many Times
TTITLE10=Please Won't You Tell Me
TTITLE11=Rollin' Blues
TTITLE12=I'm Leaving Baby
TTITLE13=Give Me Back My Wig
EXTD=Recorded in New Orleans 
EXTT0=
EXTT1=
EXTT2=
EXTT3=
EXTT4=
EXTT5=
EXTT6=
EXTT7=
EXTT8=
EXTT9=
EXTT10=
EXTT11=
EXTT12=
EXTT13=
PLAYORDER=
